<?xml version="1.0" standalone="no"?>
<!DOCTYPE svg PUBLIC "-//W3C//DTD SVG 20010904//EN"
 "http://www.w3.org/TR/2001/REC-SVG-20010904/DTD/svg10.dtd">
<svg version="1.0" xmlns="http://www.w3.org/2000/svg"
 width="222.000000pt" height="227.000000pt" viewBox="0 0 222.000000 227.000000"
 preserveAspectRatio="xMidYMid meet">
<metadata>
Created by potrace 1.10, written by Peter Selinger 2001-2011
</metadata>
<g transform="translate(0.000000,227.000000) scale(0.100000,-0.100000)"
fill="#000000" stroke="none">
<path d="M965 2256 c-32 -14 -39 -22 -156 -171 -39 -49 -83 -106 -99 -125 -15
-19 -166 -208 -335 -420 -168 -212 -312 -393 -320 -402 -68 -82 -58 -206 22
-279 51 -48 66 -49 564 -49 l469 0 1 -152 c1 -84 2 -169 3 -188 1 -19 3 -119
4 -221 l2 -186 26 -27 c20 -19 37 -26 65 -26 63 0 58 -5 212 190 7 8 28 35 47
60 19 25 37 47 40 50 3 3 34 41 69 85 34 44 70 89 79 100 10 11 33 40 52 65
19 25 37 47 40 50 3 3 27 34 55 70 27 36 57 74 67 85 21 26 77 95 105 131 114
146 168 213 188 237 33 39 48 91 43 152 -6 68 -38 116 -99 150 l-47 25 -478 0
-479 0 3 -319 3 -319 -38 9 c-21 5 -232 9 -469 9 -414 0 -494 5 -494 30 0 5
-9 12 -21 15 -11 4 -18 9 -16 12 3 2 -3 13 -14 24 -13 13 -18 28 -14 47 4 22
4 24 -4 7 -10 -20 -10 -20 -11 0 -3 28 0 43 12 74 13 30 15 37 17 53 0 6 4 8
7 5 4 -4 17 13 29 36 12 23 31 46 41 51 11 5 26 23 34 40 8 17 21 30 28 29 6
-2 12 6 12 17 0 11 5 20 10 20 6 0 10 7 10 15 0 8 3 14 8 14 19 -3 33 2 28 10
-4 5 -3 17 0 26 4 10 9 13 13 6 4 -6 12 -2 20 10 7 12 8 18 2 15 -7 -4 -8 -1
-5 8 3 9 9 14 13 11 4 -2 18 14 30 35 12 22 25 40 27 40 3 0 2 -4 -1 -10 -3
-5 -1 -10 4 -10 11 0 15 13 12 39 -2 7 2 10 8 7 5 -4 12 3 16 14 3 11 11 20
16 20 5 0 9 7 9 16 0 8 4 12 10 9 5 -3 18 9 29 27 11 18 25 38 30 45 6 7 11
17 11 22 0 6 9 16 20 23 11 7 20 18 20 25 0 6 8 18 18 25 10 7 27 28 37 45 13
23 21 29 27 20 6 -9 8 -9 8 1 0 23 61 103 72 96 7 -4 8 -2 4 4 -10 16 42 82
59 76 10 -4 12 1 8 17 -4 15 -3 20 5 15 7 -4 12 -1 12 7 0 7 9 23 20 35 11 12
20 24 20 27 0 12 28 34 34 27 4 -3 4 2 0 12 -5 12 -4 17 2 13 6 -3 18 7 28 24
9 16 23 29 31 29 8 0 17 5 21 12 4 7 3 8 -4 4 -24 -15 -11 14 13 30 26 17 81
12 70 -7 -4 -5 -1 -8 7 -7 8 2 12 -4 10 -16 -2 -12 1 -16 9 -10 10 6 11 -54 6
-279 -4 -177 -2 -287 4 -287 5 0 9 -39 9 -86 0 -54 4 -83 10 -79 11 7 14 703
4 742 -12 44 -81 70 -129 49z m1000 -831 c28 -1 56 -4 62 -8 7 -4 29 -8 49 -9
28 -1 44 -10 70 -37 33 -36 43 -61 24 -61 -5 0 -10 -4 -10 -10 0 -5 7 -7 15
-4 12 5 15 -2 15 -30 0 -20 -3 -36 -7 -36 -5 0 -9 -12 -10 -26 0 -15 -5 -29
-10 -33 -5 -3 -17 -19 -26 -34 -10 -16 -24 -26 -32 -24 -9 4 -11 -1 -7 -15 3
-12 1 -19 -4 -15 -6 3 -19 -10 -29 -29 -10 -20 -32 -44 -47 -55 -15 -11 -28
-26 -28 -33 0 -7 -11 -25 -25 -40 -14 -15 -25 -31 -25 -37 0 -5 -4 -9 -8 -9
-5 0 -28 -27 -53 -61 -24 -33 -52 -65 -61 -70 -10 -5 -18 -17 -18 -25 0 -11
-6 -14 -16 -10 -12 5 -14 1 -8 -17 3 -12 3 -19 -1 -15 -5 5 -13 0 -19 -11 -28
-47 -67 -99 -97 -130 -19 -18 -34 -39 -34 -45 -1 -6 -6 -10 -13 -9 -7 2 -12
-1 -12 -7 0 -11 -124 -176 -150 -200 -9 -8 -31 -35 -48 -59 -18 -24 -32 -40
-32 -35 -1 5 -8 -4 -17 -21 -9 -16 -29 -41 -44 -54 -16 -13 -29 -29 -29 -36 0
-22 -46 -56 -66 -48 -58 22 -62 48 -69 433 -3 190 -9 460 -13 600 -4 140 -5
280 -2 310 l5 55 367 0 c201 0 370 4 374 8 4 4 15 4 23 0 9 -4 39 -8 66 -8z"/>
</g>
</svg>
