<?xml version="1.0" standalone="no"?>
<!DOCTYPE svg PUBLIC "-//W3C//DTD SVG 20010904//EN"
 "http://www.w3.org/TR/2001/REC-SVG-20010904/DTD/svg10.dtd">
<svg version="1.0" xmlns="http://www.w3.org/2000/svg"
 width="206.000000pt" height="245.000000pt" viewBox="0 0 206.000000 245.000000"
 preserveAspectRatio="xMidYMid meet">
<metadata>
Created by potrace 1.10, written by Peter Selinger 2001-2011
</metadata>
<g transform="translate(0.000000,245.000000) scale(0.100000,-0.100000)"
fill="#000000" stroke="none">
<path d="M870 2359 l-155 -89 0 -52 0 -52 -182 -105 -183 -105 0 -188 0 -188
-50 -25 -50 -25 0 -179 0 -179 67 -38 c38 -21 108 -61 156 -90 l88 -53 65 39
c35 22 66 40 69 40 3 0 79 -43 170 -95 l164 -95 154 89 c84 50 161 93 169 96
9 4 44 -11 81 -34 l66 -40 88 53 c48 29 118 69 156 90 l67 38 0 179 0 179 -50
25 -50 25 0 188 -1 187 -189 109 -190 109 0 53 c0 30 -4 54 -9 54 -5 0 -43 20
-85 45 -42 24 -106 62 -144 83 l-68 39 -154 -88z m190 31 c14 -11 31 -20 38
-20 6 0 12 -4 12 -10 0 -13 -6 -13 -32 1 -34 18 -68 20 -99 5 -39 -20 -37 -3
4 22 41 26 47 26 77 2z m139 -130 c28 0 3 -21 -79 -69 -50 -28 -93 -51 -95
-51 -12 0 -185 103 -185 110 0 4 13 13 28 19 16 7 57 29 92 50 l64 39 82 -49
c46 -27 87 -49 93 -49z m-279 82 c0 -4 -17 -18 -38 -31 -79 -49 -75 -81 18
-141 78 -50 116 -61 161 -44 54 18 146 79 159 104 10 18 8 26 -12 47 -12 14
-35 31 -50 39 -16 8 -28 19 -28 23 0 10 76 -26 98 -46 7 -7 19 -13 26 -13 21
0 43 -33 49 -74 7 -44 35 -78 89 -109 21 -11 38 -24 38 -29 0 -5 -10 -2 -22 6
-72 45 -101 25 -108 -74 l-5 -72 -60 -32 c-33 -17 -89 -50 -125 -73 -36 -24
-73 -43 -83 -43 -19 0 -141 70 -134 77 2 2 21 -4 42 -13 36 -15 39 -15 59 5
30 31 35 181 7 227 -21 35 -150 114 -186 114 -35 0 -43 -18 -45 -115 -3 -121
-4 -117 31 -153 33 -34 32 -40 -3 -19 -37 20 -47 40 -48 92 0 62 -21 95 -59
95 -15 0 -32 -5 -39 -12 -9 -9 -12 -9 -12 0 0 6 10 17 23 23 46 24 77 62 77
95 0 42 21 65 105 113 80 46 75 43 75 33z m-92 -181 c15 -10 55 -34 90 -53
l63 -35 2 -112 c1 -61 1 -111 0 -111 -1 0 -45 25 -97 56 l-96 56 0 109 c0 60
3 109 6 109 3 0 18 -8 32 -19z m-109 -163 l-2 -83 155 -91 c136 -80 157 -89
173 -78 10 7 78 48 152 89 l133 76 0 85 c0 46 3 84 6 84 3 0 18 -8 32 -18 15
-10 80 -49 145 -86 l117 -68 0 -139 0 -140 -47 27 c-27 15 -52 31 -58 36 -18
16 -37 8 -185 -78 l-150 -86 0 -179 0 -179 45 -22 c25 -12 45 -24 45 -27 0 -4
-57 -38 -126 -78 l-125 -72 -122 70 c-67 38 -123 73 -125 77 -1 4 18 18 43 30
l45 22 0 179 0 179 -150 86 c-82 47 -154 86 -159 86 -5 0 -38 -16 -71 -36 -34
-20 -62 -34 -63 -32 -1 1 0 66 3 142 l5 139 95 55 c52 30 113 67 135 82 22 16
44 29 48 29 5 1 7 -36 6 -81z m-177 19 c-6 -7 -31 -23 -55 -35 -84 -42 -89
-53 -88 -198 2 -181 12 -192 123 -139 36 18 39 18 78 0 22 -10 45 -24 51 -32
7 -8 -6 -5 -35 8 -28 12 -55 18 -69 14 -40 -12 -84 -34 -97 -50 -7 -8 -17 -15
-23 -15 -15 0 -67 -51 -67 -66 0 -6 16 -26 35 -43 44 -38 44 -44 0 -25 -46 19
-72 18 -84 -3 -5 -10 -12 -57 -16 -105 -7 -80 -5 -89 15 -118 12 -17 45 -44
73 -60 29 -16 46 -30 39 -30 -21 0 -122 61 -132 80 -6 10 -10 81 -10 157 l0
138 47 41 48 42 3 175 c4 199 -3 182 102 240 73 41 77 42 62 24z m1081 -50
c21 -11 43 -31 48 -45 6 -14 9 -82 9 -151 -1 -69 -1 -140 -1 -157 1 -31 15
-50 70 -94 l31 -25 0 -138 c0 -76 -5 -147 -10 -158 -6 -10 -25 -26 -43 -35
-18 -9 -34 -20 -37 -23 -11 -14 -49 -30 -54 -23 -2 4 17 20 43 34 79 45 82 51
79 168 -2 72 -7 105 -15 108 -10 3 -13 -23 -13 -105 l-1 -108 -87 -50 c-101
-58 -118 -64 -108 -40 3 9 6 59 6 110 l0 93 90 52 c49 28 92 55 95 61 9 14
-33 11 -65 -6 -17 -9 -30 -11 -30 -5 0 5 4 10 10 10 14 0 60 49 60 65 0 28
-163 135 -205 135 -7 0 -33 -11 -59 -25 -25 -13 -46 -21 -46 -16 0 4 24 20 54
36 l54 28 50 -21 c64 -28 79 -27 103 1 17 19 19 37 17 140 0 64 -4 117 -8 117
-4 0 -12 11 -20 24 -7 14 -39 39 -71 56 -33 17 -59 36 -59 42 0 5 17 0 38 -13
20 -12 54 -32 75 -42z m-969 -406 c48 -27 89 -51 92 -53 5 -6 -170 -108 -184
-108 -5 0 -50 23 -101 51 l-92 52 88 53 c48 28 93 53 99 53 6 1 50 -21 98 -48z
m945 -5 l92 -53 -97 -55 -98 -54 -80 48 c-45 26 -87 51 -95 56 -10 6 10 22 75
59 49 28 94 51 100 52 7 1 53 -23 103 -53z m-905 36 c3 -4 31 -21 63 -37 32
-16 64 -36 70 -45 20 -23 16 -305 -4 -325 -8 -8 -18 -15 -21 -15 -4 0 -15 -12
-24 -27 -15 -26 -15 -30 0 -55 9 -16 19 -28 23 -28 3 0 46 -23 95 -51 110 -63
138 -69 196 -38 23 13 45 26 48 29 3 3 31 19 63 35 32 17 67 42 78 57 l20 27
-39 43 -38 43 -2 144 c-2 125 0 147 16 164 19 22 92 61 92 50 0 -4 9 3 21 16
12 12 23 20 27 17 3 -3 -7 -15 -22 -27 -65 -51 -73 -78 -28 -106 33 -22 52
-39 52 -49 0 -4 -9 1 -19 10 -11 10 -37 20 -59 23 -53 7 -61 -9 -63 -125 -2
-112 5 -124 98 -179 122 -72 149 -64 153 42 4 113 1 132 -26 165 -27 31 -27
53 0 31 18 -15 84 -4 104 16 8 8 17 12 19 9 3 -3 -14 -23 -37 -44 l-42 -38 1
-99 c1 -78 5 -103 19 -118 16 -18 22 -18 82 -2 24 7 -68 -55 -102 -67 -9 -4
-35 5 -62 23 -71 45 -96 40 -243 -44 -131 -75 -161 -90 -178 -90 -15 -1 -66
25 -100 49 -63 45 -204 114 -234 114 -16 0 -51 -13 -77 -29 -48 -31 -75 -30
-114 3 -8 8 -28 21 -45 29 -26 14 -27 16 -8 17 12 0 25 -4 28 -10 9 -15 36
-12 57 7 15 13 18 32 18 113 0 107 -10 131 -74 172 -27 17 -28 19 -6 12 14 -3
27 -9 30 -13 9 -11 34 -15 78 -14 l43 2 -25 -30 c-15 -17 -27 -40 -27 -52 -8
-151 -3 -179 31 -197 21 -11 45 -3 125 44 94 55 95 57 95 168 0 55 -5 108 -10
119 -14 25 -53 24 -99 -2 l-36 -21 43 39 c23 21 42 46 42 55 0 15 -31 50 -75
82 -11 9 -15 16 -8 16 6 0 14 -4 17 -8z m-273 -207 l94 -56 5 -107 c3 -59 4
-109 2 -112 -1 -2 -15 4 -30 13 -15 9 -57 34 -94 54 l-67 38 -3 112 c-2 62 -2
113 -2 113 1 0 44 -25 95 -55z m371 -62 l-3 -108 -87 -50 c-48 -28 -91 -51
-97 -53 -6 -2 -8 37 -5 108 l5 110 90 53 c50 30 92 53 95 51 3 -1 4 -51 2
-111z m569 62 l94 -56 5 -110 c3 -70 1 -109 -5 -107 -5 2 -49 26 -97 53 l-88
50 0 97 c0 53 -3 103 -6 112 -3 9 -4 16 -1 16 3 0 47 -25 98 -55z"/>
<path d="M1220 2192 c-14 -2 -27 -7 -30 -11 -5 -6 -39 -27 -81 -48 -59 -30
-74 -58 -77 -151 -2 -48 1 -99 7 -114 15 -40 60 -37 136 8 106 63 105 62 105
184 0 118 -10 140 -60 132z m32 -124 c-2 -62 -7 -114 -10 -116 -4 -1 -45 -25
-91 -52 -46 -28 -86 -50 -88 -50 -1 0 -3 49 -3 109 l0 110 73 40 c39 22 81 47
92 55 11 9 22 16 25 16 3 0 3 -51 2 -112z"/>
<path d="M1771 650 c-132 -33 -200 -189 -174 -399 16 -125 49 -183 125 -222
50 -25 158 -26 213 0 36 16 105 81 105 99 0 4 4 24 9 45 l9 37 -64 0 c-62 0
-64 -1 -64 -26 0 -40 -50 -84 -97 -84 -88 0 -113 50 -113 224 0 139 14 193 55
220 59 39 140 4 154 -64 l7 -35 62 -3 c34 -2 62 -1 62 1 0 21 -36 116 -53 139
-40 54 -156 88 -236 68z m132 -34 c48 -17 74 -41 98 -88 16 -31 16 -38 4 -48
-18 -15 -30 -7 -60 40 -31 49 -56 62 -116 62 -60 0 -92 -22 -119 -84 -17 -39
-20 -68 -20 -171 0 -140 11 -179 59 -220 65 -54 146 -41 194 31 39 58 85 59
65 1 -22 -63 -135 -128 -201 -115 -50 9 -120 59 -144 103 -29 53 -35 91 -35
219 0 94 3 120 21 157 50 104 152 149 254 113z"/>
<path d="M540 330 l0 -320 60 0 60 0 0 120 0 120 50 0 50 0 60 -120 60 -120
65 0 c36 0 65 1 65 3 0 1 -32 63 -70 136 -39 74 -69 135 -68 135 45 21 66 38
87 70 21 32 26 51 26 100 -1 74 -22 117 -73 151 -52 34 -109 44 -249 45 l-123
0 0 -320z m280 279 c88 -19 148 -92 136 -166 -2 -15 -5 -34 -5 -40 -1 -7 -24
-38 -51 -69 -59 -64 -59 -58 6 -183 52 -100 54 -114 17 -109 -23 3 -35 18 -79
103 -60 114 -81 135 -134 135 -58 0 -69 -20 -72 -129 -2 -75 -6 -96 -20 -104
-12 -8 -21 -7 -32 2 -14 12 -16 49 -16 280 0 194 3 270 12 279 15 15 169 16
238 1z"/>
<path d="M657 562 c-13 -15 -17 -39 -17 -115 0 -88 2 -97 22 -111 28 -20 107
-21 152 -2 99 41 100 190 1 232 -50 21 -138 19 -158 -4z m171 -37 c34 -29 44
-63 30 -111 -12 -46 -50 -64 -133 -64 l-65 0 0 100 0 100 69 0 c59 0 74 -4 99
-25z"/>
<path d="M1090 331 l0 -321 60 0 60 0 0 120 0 120 83 0 c98 0 153 23 201 83
28 35 31 46 31 110 0 92 -30 143 -102 178 -42 21 -66 24 -190 27 l-143 4 0
-321z m313 265 c115 -57 129 -210 26 -282 -31 -21 -57 -28 -126 -35 -116 -12
-123 -20 -123 -139 0 -80 -2 -89 -20 -95 -11 -3 -24 -3 -30 0 -16 10 -13 562
3 569 6 3 62 4 122 3 84 -2 119 -6 148 -21z"/>
<path d="M1202 557 c-19 -20 -22 -35 -22 -114 0 -113 8 -123 101 -123 102 0
149 38 152 125 3 79 -63 135 -159 135 -40 0 -55 -5 -72 -23z m157 -22 c54 -28
66 -108 23 -156 -25 -28 -35 -32 -100 -37 l-72 -5 0 107 0 106 60 0 c34 0 74
-7 89 -15z"/>
<path d="M110 540 l0 -60 -52 0 -53 0 0 -40 0 -40 53 0 52 0 0 -127 c0 -149 9
-189 51 -229 27 -26 38 -29 107 -32 93 -5 167 12 158 34 -3 9 -6 28 -6 44 0
27 -1 28 -38 19 -66 -15 -101 -11 -127 16 -24 23 -25 30 -25 151 l0 126 90 -4
90 -3 0 46 0 45 -90 -4 -90 -4 0 61 0 61 -60 0 -60 0 0 -60z m93 -17 c4 -23
14 -46 22 -53 11 -9 61 -16 138 -20 5 0 6 -4 3 -9 -3 -5 -33 -11 -67 -13 -89
-6 -99 -21 -99 -151 0 -155 25 -195 130 -203 14 -1 31 -2 38 -3 29 -2 9 -31
-30 -42 -50 -13 -96 -7 -133 17 -47 31 -59 68 -64 211 -7 150 -12 161 -80 170
-52 7 -49 27 4 31 46 3 75 26 75 58 0 38 11 55 33 52 16 -2 23 -13 30 -45z"/>
</g>
</svg>
